<mxfile host="app.diagrams.net" agent="Mozilla/5.0 (Windows NT 10.0; Win64; x64) AppleWebKit/537.36 (KHTML, like Gecko) Chrome/127.0.0.0 Safari/537.36" version="24.7.7">
  <diagram id="C5RBs43oDa-KdzZeNtuy" name="Page-1">
    <mxGraphModel dx="2087" dy="963" grid="1" gridSize="10" guides="1" tooltips="1" connect="1" arrows="1" fold="1" page="1" pageScale="1" pageWidth="827" pageHeight="1169" math="0" shadow="0">
      <root>
        <mxCell id="WIyWlLk6GJQsqaUBKTNV-0" />
        <mxCell id="WIyWlLk6GJQsqaUBKTNV-1" parent="WIyWlLk6GJQsqaUBKTNV-0" />
        <mxCell id="4M2q_wNIUeYn6wOlyX9m-0" value="Application" style="swimlane;fontStyle=1;align=center;verticalAlign=top;childLayout=stackLayout;horizontal=1;startSize=26;horizontalStack=0;resizeParent=1;resizeParentMax=0;resizeLast=0;collapsible=1;marginBottom=0;whiteSpace=wrap;html=1;" vertex="1" parent="WIyWlLk6GJQsqaUBKTNV-1">
          <mxGeometry x="603" y="700" width="160" height="86" as="geometry" />
        </mxCell>
        <mxCell id="4M2q_wNIUeYn6wOlyX9m-1" value="N/A" style="text;strokeColor=none;fillColor=none;align=left;verticalAlign=top;spacingLeft=4;spacingRight=4;overflow=hidden;rotatable=0;points=[[0,0.5],[1,0.5]];portConstraint=eastwest;whiteSpace=wrap;html=1;" vertex="1" parent="4M2q_wNIUeYn6wOlyX9m-0">
          <mxGeometry y="26" width="160" height="26" as="geometry" />
        </mxCell>
        <mxCell id="4M2q_wNIUeYn6wOlyX9m-2" value="" style="line;strokeWidth=1;fillColor=none;align=left;verticalAlign=middle;spacingTop=-1;spacingLeft=3;spacingRight=3;rotatable=0;labelPosition=right;points=[];portConstraint=eastwest;strokeColor=inherit;" vertex="1" parent="4M2q_wNIUeYn6wOlyX9m-0">
          <mxGeometry y="52" width="160" height="8" as="geometry" />
        </mxCell>
        <mxCell id="4M2q_wNIUeYn6wOlyX9m-3" value="+main(String[] args) : void" style="text;strokeColor=none;fillColor=none;align=left;verticalAlign=top;spacingLeft=4;spacingRight=4;overflow=hidden;rotatable=0;points=[[0,0.5],[1,0.5]];portConstraint=eastwest;whiteSpace=wrap;html=1;" vertex="1" parent="4M2q_wNIUeYn6wOlyX9m-0">
          <mxGeometry y="60" width="160" height="26" as="geometry" />
        </mxCell>
        <mxCell id="4M2q_wNIUeYn6wOlyX9m-4" value="Report" style="swimlane;fontStyle=1;align=center;verticalAlign=top;childLayout=stackLayout;horizontal=1;startSize=26;horizontalStack=0;resizeParent=1;resizeParentMax=0;resizeLast=0;collapsible=1;marginBottom=0;whiteSpace=wrap;html=1;" vertex="1" parent="WIyWlLk6GJQsqaUBKTNV-1">
          <mxGeometry x="353" y="700" width="160" height="140" as="geometry" />
        </mxCell>
        <mxCell id="4M2q_wNIUeYn6wOlyX9m-5" value="+reportId : int&lt;div&gt;-reportType : String&lt;/div&gt;&lt;div&gt;-dateGenerated : Date&lt;/div&gt;&lt;div&gt;-content : String&lt;/div&gt;" style="text;strokeColor=none;fillColor=none;align=left;verticalAlign=top;spacingLeft=4;spacingRight=4;overflow=hidden;rotatable=0;points=[[0,0.5],[1,0.5]];portConstraint=eastwest;whiteSpace=wrap;html=1;" vertex="1" parent="4M2q_wNIUeYn6wOlyX9m-4">
          <mxGeometry y="26" width="160" height="64" as="geometry" />
        </mxCell>
        <mxCell id="4M2q_wNIUeYn6wOlyX9m-6" value="" style="line;strokeWidth=1;fillColor=none;align=left;verticalAlign=middle;spacingTop=-1;spacingLeft=3;spacingRight=3;rotatable=0;labelPosition=right;points=[];portConstraint=eastwest;strokeColor=inherit;" vertex="1" parent="4M2q_wNIUeYn6wOlyX9m-4">
          <mxGeometry y="90" width="160" height="8" as="geometry" />
        </mxCell>
        <mxCell id="4M2q_wNIUeYn6wOlyX9m-7" value="+generateReport() : String&lt;div&gt;+viewReport() : String&lt;/div&gt;" style="text;strokeColor=none;fillColor=none;align=left;verticalAlign=top;spacingLeft=4;spacingRight=4;overflow=hidden;rotatable=0;points=[[0,0.5],[1,0.5]];portConstraint=eastwest;whiteSpace=wrap;html=1;" vertex="1" parent="4M2q_wNIUeYn6wOlyX9m-4">
          <mxGeometry y="98" width="160" height="42" as="geometry" />
        </mxCell>
        <mxCell id="4M2q_wNIUeYn6wOlyX9m-8" value="Notfication" style="swimlane;fontStyle=1;align=center;verticalAlign=top;childLayout=stackLayout;horizontal=1;startSize=26;horizontalStack=0;resizeParent=1;resizeParentMax=0;resizeLast=0;collapsible=1;marginBottom=0;whiteSpace=wrap;html=1;" vertex="1" parent="WIyWlLk6GJQsqaUBKTNV-1">
          <mxGeometry x="93" y="700" width="170" height="130" as="geometry" />
        </mxCell>
        <mxCell id="4M2q_wNIUeYn6wOlyX9m-9" value="+notificationId : int&lt;div&gt;-message : String&lt;/div&gt;&lt;div&gt;-dateSent : Date&lt;/div&gt;" style="text;strokeColor=none;fillColor=none;align=left;verticalAlign=top;spacingLeft=4;spacingRight=4;overflow=hidden;rotatable=0;points=[[0,0.5],[1,0.5]];portConstraint=eastwest;whiteSpace=wrap;html=1;" vertex="1" parent="4M2q_wNIUeYn6wOlyX9m-8">
          <mxGeometry y="26" width="170" height="54" as="geometry" />
        </mxCell>
        <mxCell id="4M2q_wNIUeYn6wOlyX9m-10" value="" style="line;strokeWidth=1;fillColor=none;align=left;verticalAlign=middle;spacingTop=-1;spacingLeft=3;spacingRight=3;rotatable=0;labelPosition=right;points=[];portConstraint=eastwest;strokeColor=inherit;" vertex="1" parent="4M2q_wNIUeYn6wOlyX9m-8">
          <mxGeometry y="80" width="170" height="8" as="geometry" />
        </mxCell>
        <mxCell id="4M2q_wNIUeYn6wOlyX9m-11" value="+sendNotification() : void&lt;div&gt;+scheduleNotification() : void&lt;/div&gt;" style="text;strokeColor=none;fillColor=none;align=left;verticalAlign=top;spacingLeft=4;spacingRight=4;overflow=hidden;rotatable=0;points=[[0,0.5],[1,0.5]];portConstraint=eastwest;whiteSpace=wrap;html=1;" vertex="1" parent="4M2q_wNIUeYn6wOlyX9m-8">
          <mxGeometry y="88" width="170" height="42" as="geometry" />
        </mxCell>
        <mxCell id="4M2q_wNIUeYn6wOlyX9m-12" value="Admin" style="swimlane;fontStyle=1;align=center;verticalAlign=top;childLayout=stackLayout;horizontal=1;startSize=26;horizontalStack=0;resizeParent=1;resizeParentMax=0;resizeLast=0;collapsible=1;marginBottom=0;whiteSpace=wrap;html=1;" vertex="1" parent="WIyWlLk6GJQsqaUBKTNV-1">
          <mxGeometry x="583" y="490" width="190" height="170" as="geometry" />
        </mxCell>
        <mxCell id="4M2q_wNIUeYn6wOlyX9m-13" value="+adminId : int&lt;div&gt;-username : String&lt;/div&gt;&lt;div&gt;-password : String&lt;/div&gt;" style="text;strokeColor=none;fillColor=none;align=left;verticalAlign=top;spacingLeft=4;spacingRight=4;overflow=hidden;rotatable=0;points=[[0,0.5],[1,0.5]];portConstraint=eastwest;whiteSpace=wrap;html=1;" vertex="1" parent="4M2q_wNIUeYn6wOlyX9m-12">
          <mxGeometry y="26" width="190" height="64" as="geometry" />
        </mxCell>
        <mxCell id="4M2q_wNIUeYn6wOlyX9m-14" value="" style="line;strokeWidth=1;fillColor=none;align=left;verticalAlign=middle;spacingTop=-1;spacingLeft=3;spacingRight=3;rotatable=0;labelPosition=right;points=[];portConstraint=eastwest;strokeColor=inherit;" vertex="1" parent="4M2q_wNIUeYn6wOlyX9m-12">
          <mxGeometry y="90" width="190" height="8" as="geometry" />
        </mxCell>
        <mxCell id="4M2q_wNIUeYn6wOlyX9m-15" value="+addStaff() : void&lt;div&gt;+removeStaff() : void&lt;/div&gt;&lt;div&gt;+manageLoyaltyProgram() : void&lt;/div&gt;&lt;div&gt;+generateReports() : void&lt;/div&gt;" style="text;strokeColor=none;fillColor=none;align=left;verticalAlign=top;spacingLeft=4;spacingRight=4;overflow=hidden;rotatable=0;points=[[0,0.5],[1,0.5]];portConstraint=eastwest;whiteSpace=wrap;html=1;" vertex="1" parent="4M2q_wNIUeYn6wOlyX9m-12">
          <mxGeometry y="98" width="190" height="72" as="geometry" />
        </mxCell>
        <mxCell id="4M2q_wNIUeYn6wOlyX9m-16" value="Billing" style="swimlane;fontStyle=1;align=center;verticalAlign=top;childLayout=stackLayout;horizontal=1;startSize=26;horizontalStack=0;resizeParent=1;resizeParentMax=0;resizeLast=0;collapsible=1;marginBottom=0;whiteSpace=wrap;html=1;" vertex="1" parent="WIyWlLk6GJQsqaUBKTNV-1">
          <mxGeometry x="83" y="440" width="160" height="160" as="geometry" />
        </mxCell>
        <mxCell id="4M2q_wNIUeYn6wOlyX9m-17" value="+invoiceId : int&lt;div&gt;-amount : double&lt;/div&gt;&lt;div&gt;-dateIssued : Date&lt;/div&gt;&lt;div&gt;-dueDate : Date&lt;/div&gt;" style="text;strokeColor=none;fillColor=none;align=left;verticalAlign=top;spacingLeft=4;spacingRight=4;overflow=hidden;rotatable=0;points=[[0,0.5],[1,0.5]];portConstraint=eastwest;whiteSpace=wrap;html=1;" vertex="1" parent="4M2q_wNIUeYn6wOlyX9m-16">
          <mxGeometry y="26" width="160" height="64" as="geometry" />
        </mxCell>
        <mxCell id="4M2q_wNIUeYn6wOlyX9m-18" value="" style="line;strokeWidth=1;fillColor=none;align=left;verticalAlign=middle;spacingTop=-1;spacingLeft=3;spacingRight=3;rotatable=0;labelPosition=right;points=[];portConstraint=eastwest;strokeColor=inherit;" vertex="1" parent="4M2q_wNIUeYn6wOlyX9m-16">
          <mxGeometry y="90" width="160" height="8" as="geometry" />
        </mxCell>
        <mxCell id="4M2q_wNIUeYn6wOlyX9m-19" value="+generateInvoice() : Invoice&lt;div&gt;+processPayment() : void&lt;/div&gt;&lt;div&gt;+issueRefund() : void&lt;/div&gt;" style="text;strokeColor=none;fillColor=none;align=left;verticalAlign=top;spacingLeft=4;spacingRight=4;overflow=hidden;rotatable=0;points=[[0,0.5],[1,0.5]];portConstraint=eastwest;whiteSpace=wrap;html=1;" vertex="1" parent="4M2q_wNIUeYn6wOlyX9m-16">
          <mxGeometry y="98" width="160" height="62" as="geometry" />
        </mxCell>
        <mxCell id="4M2q_wNIUeYn6wOlyX9m-20" value="Reservation" style="swimlane;fontStyle=1;align=center;verticalAlign=top;childLayout=stackLayout;horizontal=1;startSize=26;horizontalStack=0;resizeParent=1;resizeParentMax=0;resizeLast=0;collapsible=1;marginBottom=0;whiteSpace=wrap;html=1;" vertex="1" parent="WIyWlLk6GJQsqaUBKTNV-1">
          <mxGeometry x="653" y="195" width="160" height="180" as="geometry" />
        </mxCell>
        <mxCell id="4M2q_wNIUeYn6wOlyX9m-21" value="+reservationId : int&lt;div&gt;-startDate : Date&lt;/div&gt;&lt;div&gt;-endDate : Date&lt;/div&gt;&lt;div&gt;-status : String&lt;/div&gt;" style="text;strokeColor=none;fillColor=none;align=left;verticalAlign=top;spacingLeft=4;spacingRight=4;overflow=hidden;rotatable=0;points=[[0,0.5],[1,0.5]];portConstraint=eastwest;whiteSpace=wrap;html=1;" vertex="1" parent="4M2q_wNIUeYn6wOlyX9m-20">
          <mxGeometry y="26" width="160" height="64" as="geometry" />
        </mxCell>
        <mxCell id="4M2q_wNIUeYn6wOlyX9m-22" value="" style="line;strokeWidth=1;fillColor=none;align=left;verticalAlign=middle;spacingTop=-1;spacingLeft=3;spacingRight=3;rotatable=0;labelPosition=right;points=[];portConstraint=eastwest;strokeColor=inherit;" vertex="1" parent="4M2q_wNIUeYn6wOlyX9m-20">
          <mxGeometry y="90" width="160" height="8" as="geometry" />
        </mxCell>
        <mxCell id="4M2q_wNIUeYn6wOlyX9m-23" value="+createReservation() : void&lt;div&gt;+cancelReservation() : void&lt;/div&gt;&lt;div&gt;+updateReservation() : void&lt;/div&gt;&lt;div&gt;&lt;br&gt;&lt;/div&gt;" style="text;strokeColor=none;fillColor=none;align=left;verticalAlign=top;spacingLeft=4;spacingRight=4;overflow=hidden;rotatable=0;points=[[0,0.5],[1,0.5]];portConstraint=eastwest;whiteSpace=wrap;html=1;" vertex="1" parent="4M2q_wNIUeYn6wOlyX9m-20">
          <mxGeometry y="98" width="160" height="82" as="geometry" />
        </mxCell>
        <mxCell id="4M2q_wNIUeYn6wOlyX9m-24" value="Pet" style="swimlane;fontStyle=1;align=center;verticalAlign=top;childLayout=stackLayout;horizontal=1;startSize=26;horizontalStack=0;resizeParent=1;resizeParentMax=0;resizeLast=0;collapsible=1;marginBottom=0;whiteSpace=wrap;html=1;" vertex="1" parent="WIyWlLk6GJQsqaUBKTNV-1">
          <mxGeometry x="373" y="120" width="180" height="220" as="geometry" />
        </mxCell>
        <mxCell id="4M2q_wNIUeYn6wOlyX9m-25" value="+petId : int&lt;div&gt;-name : String&amp;nbsp;&lt;/div&gt;&lt;div&gt;-species : String&lt;/div&gt;&lt;div&gt;-breed : String&lt;/div&gt;&lt;div&gt;-age : int&lt;/div&gt;&lt;div&gt;-feedingInstructions : String&lt;/div&gt;&lt;div&gt;-medicationInstructions : String&lt;/div&gt;" style="text;strokeColor=none;fillColor=none;align=left;verticalAlign=top;spacingLeft=4;spacingRight=4;overflow=hidden;rotatable=0;points=[[0,0.5],[1,0.5]];portConstraint=eastwest;whiteSpace=wrap;html=1;" vertex="1" parent="4M2q_wNIUeYn6wOlyX9m-24">
          <mxGeometry y="26" width="180" height="124" as="geometry" />
        </mxCell>
        <mxCell id="4M2q_wNIUeYn6wOlyX9m-26" value="" style="line;strokeWidth=1;fillColor=none;align=left;verticalAlign=middle;spacingTop=-1;spacingLeft=3;spacingRight=3;rotatable=0;labelPosition=right;points=[];portConstraint=eastwest;strokeColor=inherit;" vertex="1" parent="4M2q_wNIUeYn6wOlyX9m-24">
          <mxGeometry y="150" width="180" height="18" as="geometry" />
        </mxCell>
        <mxCell id="4M2q_wNIUeYn6wOlyX9m-27" value="+getPetProfile() : String&lt;div&gt;+updatePetProfile() : String&lt;/div&gt;&lt;div&gt;&lt;br&gt;&lt;/div&gt;" style="text;strokeColor=none;fillColor=none;align=left;verticalAlign=top;spacingLeft=4;spacingRight=4;overflow=hidden;rotatable=0;points=[[0,0.5],[1,0.5]];portConstraint=eastwest;whiteSpace=wrap;html=1;" vertex="1" parent="4M2q_wNIUeYn6wOlyX9m-24">
          <mxGeometry y="168" width="180" height="52" as="geometry" />
        </mxCell>
        <mxCell id="4M2q_wNIUeYn6wOlyX9m-28" value="Client" style="swimlane;fontStyle=1;align=center;verticalAlign=top;childLayout=stackLayout;horizontal=1;startSize=26;horizontalStack=0;resizeParent=1;resizeParentMax=0;resizeLast=0;collapsible=1;marginBottom=0;whiteSpace=wrap;html=1;" vertex="1" parent="WIyWlLk6GJQsqaUBKTNV-1">
          <mxGeometry x="53" y="180" width="200" height="210" as="geometry" />
        </mxCell>
        <mxCell id="4M2q_wNIUeYn6wOlyX9m-29" value="+clientId : Int&lt;div&gt;-name : String&lt;/div&gt;&lt;div&gt;-address : String&lt;/div&gt;&lt;div&gt;-phoneNumber : String&lt;/div&gt;&lt;div&gt;-email : String&lt;/div&gt;" style="text;strokeColor=none;fillColor=none;align=left;verticalAlign=top;spacingLeft=4;spacingRight=4;overflow=hidden;rotatable=0;points=[[0,0.5],[1,0.5]];portConstraint=eastwest;whiteSpace=wrap;html=1;" vertex="1" parent="4M2q_wNIUeYn6wOlyX9m-28">
          <mxGeometry y="26" width="200" height="104" as="geometry" />
        </mxCell>
        <mxCell id="4M2q_wNIUeYn6wOlyX9m-30" value="" style="line;strokeWidth=1;fillColor=none;align=left;verticalAlign=middle;spacingTop=-1;spacingLeft=3;spacingRight=3;rotatable=0;labelPosition=right;points=[];portConstraint=eastwest;strokeColor=inherit;" vertex="1" parent="4M2q_wNIUeYn6wOlyX9m-28">
          <mxGeometry y="130" width="200" height="8" as="geometry" />
        </mxCell>
        <mxCell id="4M2q_wNIUeYn6wOlyX9m-31" value="+getClientDetails() : int&lt;div&gt;+updateClientDetails() : void&lt;/div&gt;&lt;div&gt;+createReservation() : Reservation&lt;/div&gt;" style="text;strokeColor=none;fillColor=none;align=left;verticalAlign=top;spacingLeft=4;spacingRight=4;overflow=hidden;rotatable=0;points=[[0,0.5],[1,0.5]];portConstraint=eastwest;whiteSpace=wrap;html=1;" vertex="1" parent="4M2q_wNIUeYn6wOlyX9m-28">
          <mxGeometry y="138" width="200" height="72" as="geometry" />
        </mxCell>
        <mxCell id="4M2q_wNIUeYn6wOlyX9m-32" value="Staff" style="swimlane;fontStyle=1;align=center;verticalAlign=top;childLayout=stackLayout;horizontal=1;startSize=26;horizontalStack=0;resizeParent=1;resizeParentMax=0;resizeLast=0;collapsible=1;marginBottom=0;whiteSpace=wrap;html=1;" vertex="1" parent="WIyWlLk6GJQsqaUBKTNV-1">
          <mxGeometry x="323" y="470" width="190" height="190" as="geometry" />
        </mxCell>
        <mxCell id="4M2q_wNIUeYn6wOlyX9m-33" value="+staffId : int&lt;div&gt;-name: String&lt;/div&gt;&lt;div&gt;-position : String&lt;/div&gt;&lt;div&gt;-contactInfo : String&lt;/div&gt;" style="text;strokeColor=none;fillColor=none;align=left;verticalAlign=top;spacingLeft=4;spacingRight=4;overflow=hidden;rotatable=0;points=[[0,0.5],[1,0.5]];portConstraint=eastwest;whiteSpace=wrap;html=1;" vertex="1" parent="4M2q_wNIUeYn6wOlyX9m-32">
          <mxGeometry y="26" width="190" height="84" as="geometry" />
        </mxCell>
        <mxCell id="4M2q_wNIUeYn6wOlyX9m-34" value="" style="line;strokeWidth=1;fillColor=none;align=left;verticalAlign=middle;spacingTop=-1;spacingLeft=3;spacingRight=3;rotatable=0;labelPosition=right;points=[];portConstraint=eastwest;strokeColor=inherit;" vertex="1" parent="4M2q_wNIUeYn6wOlyX9m-32">
          <mxGeometry y="110" width="190" height="8" as="geometry" />
        </mxCell>
        <mxCell id="4M2q_wNIUeYn6wOlyX9m-35" value="+managePetProfiel() : void&lt;div&gt;+manageClientProfile() : void&lt;/div&gt;&lt;div&gt;+handleReservations() : void&lt;/div&gt;&lt;div&gt;&lt;br&gt;&lt;/div&gt;" style="text;strokeColor=none;fillColor=none;align=left;verticalAlign=top;spacingLeft=4;spacingRight=4;overflow=hidden;rotatable=0;points=[[0,0.5],[1,0.5]];portConstraint=eastwest;whiteSpace=wrap;html=1;" vertex="1" parent="4M2q_wNIUeYn6wOlyX9m-32">
          <mxGeometry y="118" width="190" height="72" as="geometry" />
        </mxCell>
        <mxCell id="4M2q_wNIUeYn6wOlyX9m-36" value="" style="endArrow=diamondThin;endFill=0;endSize=24;html=1;rounded=0;entryX=1.008;entryY=0.737;entryDx=0;entryDy=0;entryPerimeter=0;" edge="1" parent="WIyWlLk6GJQsqaUBKTNV-1" target="4M2q_wNIUeYn6wOlyX9m-29">
          <mxGeometry width="160" relative="1" as="geometry">
            <mxPoint x="373" y="210" as="sourcePoint" />
            <mxPoint x="333" y="120" as="targetPoint" />
            <Array as="points">
              <mxPoint x="323" y="210" />
              <mxPoint x="323" y="283" />
            </Array>
          </mxGeometry>
        </mxCell>
        <mxCell id="4M2q_wNIUeYn6wOlyX9m-37" value="Use" style="endArrow=open;endSize=12;dashed=1;html=1;rounded=0;entryX=0.008;entryY=0.951;entryDx=0;entryDy=0;entryPerimeter=0;exitX=1.003;exitY=0.671;exitDx=0;exitDy=0;exitPerimeter=0;" edge="1" parent="WIyWlLk6GJQsqaUBKTNV-1" source="4M2q_wNIUeYn6wOlyX9m-31" target="4M2q_wNIUeYn6wOlyX9m-23">
          <mxGeometry width="160" relative="1" as="geometry">
            <mxPoint x="273" y="390" as="sourcePoint" />
            <mxPoint x="533" y="410" as="targetPoint" />
            <Array as="points">
              <mxPoint x="513" y="370" />
            </Array>
          </mxGeometry>
        </mxCell>
        <mxCell id="4M2q_wNIUeYn6wOlyX9m-39" value="" style="endArrow=diamondThin;endFill=1;endSize=24;html=1;rounded=0;entryX=0.273;entryY=1.051;entryDx=0;entryDy=0;entryPerimeter=0;exitX=0.438;exitY=0.012;exitDx=0;exitDy=0;exitPerimeter=0;" edge="1" parent="WIyWlLk6GJQsqaUBKTNV-1" source="4M2q_wNIUeYn6wOlyX9m-16" target="4M2q_wNIUeYn6wOlyX9m-23">
          <mxGeometry width="160" relative="1" as="geometry">
            <mxPoint x="133" y="430" as="sourcePoint" />
            <mxPoint x="703" y="430" as="targetPoint" />
            <Array as="points">
              <mxPoint x="153" y="420" />
              <mxPoint x="697" y="420" />
            </Array>
          </mxGeometry>
        </mxCell>
        <mxCell id="4M2q_wNIUeYn6wOlyX9m-40" value="Use" style="endArrow=open;endSize=12;dashed=1;html=1;rounded=0;exitX=0.004;exitY=0.847;exitDx=0;exitDy=0;exitPerimeter=0;entryX=0.048;entryY=1.013;entryDx=0;entryDy=0;entryPerimeter=0;" edge="1" parent="WIyWlLk6GJQsqaUBKTNV-1" source="4M2q_wNIUeYn6wOlyX9m-35" target="4M2q_wNIUeYn6wOlyX9m-31">
          <mxGeometry width="160" relative="1" as="geometry">
            <mxPoint x="-37" y="650" as="sourcePoint" />
            <mxPoint x="-27" y="680" as="targetPoint" />
            <Array as="points">
              <mxPoint x="63" y="650" />
            </Array>
          </mxGeometry>
        </mxCell>
        <mxCell id="4M2q_wNIUeYn6wOlyX9m-41" value="Use" style="endArrow=open;endSize=12;dashed=1;html=1;rounded=0;exitX=1.009;exitY=0.05;exitDx=0;exitDy=0;exitPerimeter=0;entryX=0.494;entryY=1.041;entryDx=0;entryDy=0;entryPerimeter=0;" edge="1" parent="WIyWlLk6GJQsqaUBKTNV-1" source="4M2q_wNIUeYn6wOlyX9m-32" target="4M2q_wNIUeYn6wOlyX9m-23">
          <mxGeometry width="160" relative="1" as="geometry">
            <mxPoint x="733" y="420" as="sourcePoint" />
            <mxPoint x="784.568603515625" y="430" as="targetPoint" />
            <Array as="points">
              <mxPoint x="730" y="480" />
            </Array>
          </mxGeometry>
        </mxCell>
        <mxCell id="4M2q_wNIUeYn6wOlyX9m-38" value="Use" style="endArrow=open;endSize=12;dashed=1;html=1;rounded=0;entryX=0.004;entryY=1.031;entryDx=0;entryDy=0;entryPerimeter=0;exitX=1.004;exitY=-0.032;exitDx=0;exitDy=0;exitPerimeter=0;" edge="1" parent="WIyWlLk6GJQsqaUBKTNV-1" source="4M2q_wNIUeYn6wOlyX9m-27" target="4M2q_wNIUeYn6wOlyX9m-21">
          <mxGeometry width="160" relative="1" as="geometry">
            <mxPoint x="653" y="300" as="sourcePoint" />
            <mxPoint x="813" y="300" as="targetPoint" />
          </mxGeometry>
        </mxCell>
        <mxCell id="4M2q_wNIUeYn6wOlyX9m-42" value="Use" style="endArrow=open;endSize=12;dashed=1;html=1;rounded=0;exitX=0.101;exitY=1.043;exitDx=0;exitDy=0;exitPerimeter=0;entryX=-0.021;entryY=0.091;entryDx=0;entryDy=0;entryPerimeter=0;" edge="1" parent="WIyWlLk6GJQsqaUBKTNV-1" source="4M2q_wNIUeYn6wOlyX9m-35" target="4M2q_wNIUeYn6wOlyX9m-24">
          <mxGeometry width="160" relative="1" as="geometry">
            <mxPoint x="363" y="680" as="sourcePoint" />
            <mxPoint x="13" y="50" as="targetPoint" />
            <Array as="points">
              <mxPoint x="343" y="680" />
              <mxPoint x="13" y="680" />
              <mxPoint x="13" y="140" />
            </Array>
          </mxGeometry>
        </mxCell>
        <mxCell id="4M2q_wNIUeYn6wOlyX9m-43" value="" style="endArrow=diamondThin;endFill=0;endSize=24;html=1;rounded=0;exitX=0.995;exitY=0.171;exitDx=0;exitDy=0;exitPerimeter=0;" edge="1" parent="WIyWlLk6GJQsqaUBKTNV-1" source="4M2q_wNIUeYn6wOlyX9m-35">
          <mxGeometry width="160" relative="1" as="geometry">
            <mxPoint x="423" y="600" as="sourcePoint" />
            <mxPoint x="583" y="600" as="targetPoint" />
          </mxGeometry>
        </mxCell>
        <mxCell id="4M2q_wNIUeYn6wOlyX9m-44" value="Use" style="endArrow=open;endSize=12;dashed=1;html=1;rounded=0;exitX=-0.017;exitY=-0.099;exitDx=0;exitDy=0;exitPerimeter=0;entryX=-0.003;entryY=0.337;entryDx=0;entryDy=0;entryPerimeter=0;" edge="1" parent="WIyWlLk6GJQsqaUBKTNV-1" source="4M2q_wNIUeYn6wOlyX9m-11" target="4M2q_wNIUeYn6wOlyX9m-31">
          <mxGeometry width="160" relative="1" as="geometry">
            <mxPoint x="-107" y="784.8199999999999" as="sourcePoint" />
            <mxPoint x="33" y="260" as="targetPoint" />
            <Array as="points">
              <mxPoint x="33" y="785" />
              <mxPoint x="33" y="350" />
            </Array>
          </mxGeometry>
        </mxCell>
        <mxCell id="4M2q_wNIUeYn6wOlyX9m-45" value="Use" style="endArrow=open;endSize=12;dashed=1;html=1;rounded=0;entryX=0.869;entryY=1.022;entryDx=0;entryDy=0;entryPerimeter=0;" edge="1" parent="WIyWlLk6GJQsqaUBKTNV-1" target="4M2q_wNIUeYn6wOlyX9m-23">
          <mxGeometry width="160" relative="1" as="geometry">
            <mxPoint x="153" y="832" as="sourcePoint" />
            <mxPoint x="805.3529411764706" y="890" as="targetPoint" />
            <Array as="points">
              <mxPoint x="153" y="890" />
              <mxPoint x="793" y="890" />
            </Array>
          </mxGeometry>
        </mxCell>
        <mxCell id="4M2q_wNIUeYn6wOlyX9m-46" value="Use" style="endArrow=open;endSize=12;dashed=1;html=1;rounded=0;exitX=0;exitY=0.861;exitDx=0;exitDy=0;exitPerimeter=0;entryX=0.989;entryY=0.99;entryDx=0;entryDy=0;entryPerimeter=0;" edge="1" parent="WIyWlLk6GJQsqaUBKTNV-1" source="4M2q_wNIUeYn6wOlyX9m-15" target="4M2q_wNIUeYn6wOlyX9m-5">
          <mxGeometry width="160" relative="1" as="geometry">
            <mxPoint x="553" y="620" as="sourcePoint" />
            <mxPoint x="553" y="880" as="targetPoint" />
            <Array as="points">
              <mxPoint x="553" y="650" />
              <mxPoint x="553" y="790" />
            </Array>
          </mxGeometry>
        </mxCell>
      </root>
    </mxGraphModel>
  </diagram>
</mxfile>
